{"title":"[MARATHI] Ganpatiche Vahan Undir Jhale - Animation - Kids [TMB]","uid":8104757,"size":17940356,"categoryP":"video","categoryS":"other","magnet":"?xt=urn:btih:265e81339ad482cd14a2efef9e06bec5d60de7d6&amp;dn=%5BMARATHI%5D+Ganpatiche+Vahan+Undir+Jhale+-+Animation+-+Kids+%5BTMB%5D&amp;tr=udp%3A%2F%2Ftracker.openbittorrent.com%3A80&amp;tr=udp%3A%2F%2Fopen.demonii.com%3A1337&amp;tr=udp%3A%2F%2Ftracker.coppersurfer.tk%3A6969&amp;tr=udp%3A%2F%2Fexodus.desync.com%3A6969","seeders":0,"leechers":1,"uploader":"SJonam","files":1,"time":1360059093,"description":" &lt;a href=&quot;http://i26.photobucket.com/albums/c119/manojb/good.gif&quot; rel=&quot;nofollow&quot; target=&quot;_NEW&quot;&gt;http://i26.photobucket.com/albums/c119/manojb/good.gif&lt;/a&gt; &lt;a href=&quot;\nhttp://i26.photobucket.com/albums/c119/manojb/vlcsnap-2013-02-05-14h20m37s171.png&quot; rel=&quot;nofollow&quot; target=&quot;_NEW&quot;&gt;\nhttp://i26.photobucket.com/albums/c119/manojb/vlcsnap-2013-02-05-14h20m37s171.png&lt;/a&gt; &lt;a href=&quot;\nhttp://i26.photobucket.com/albums/c119/manojb/vlcsnap-2013-02-05-14h20m43s236.png&quot; rel=&quot;nofollow&quot; target=&quot;_NEW&quot;&gt;\nhttp://i26.photobucket.com/albums/c119/manojb/vlcsnap-2013-02-05-14h20m43s236.png&lt;/a&gt; &lt;a href=&quot;\nhttp://i26.photobucket.com/albums/c119/manojb/vlcsnap-2013-02-05-14h21m05s197.png&quot; rel=&quot;nofollow&quot; target=&quot;_NEW&quot;&gt;\nhttp://i26.photobucket.com/albums/c119/manojb/vlcsnap-2013-02-05-14h21m05s197.png&lt;/a&gt; &lt;a href=&quot;\nhttp://i26.photobucket.com/albums/c119/manojb/vlcsnap-2013-02-05-14h21m19s84.png&quot; rel=&quot;nofollow&quot; target=&quot;_NEW&quot;&gt;\nhttp://i26.photobucket.com/albums/c119/manojb/vlcsnap-2013-02-05-14h21m19s84.png&lt;/a&gt;\n\nInfo - \nWatch the Story of Mushika Becomes Ganesha's Vehicle from the Ganesha series - Marathi Kids Animation Anecdotes and Stories that narrate the greatness of Lord Ganesha - The Elephant.\n\nMedia Info - \nGeneral\nComplete name                  : Ganpatiche Vahan Undir Jhale.avi\nFormat                         : AVI\nFormat/Info                    : Audio Video Interleave\nFile size                      : 17.1 MiB\nDuration                       : 17h 56mn\nOverall bit rate               : 2 221 bps\n\nVideo\nID                             : 0\nFormat                         : MPEG-4 Visual\nFormat profile                 : Advanced Simple@L1\nFormat settings, BVOP          : 2\nFormat settings, QPel          : No\nFormat settings, GMC           : No warppoints\nFormat settings, Matrix        : Default (H.263)\nCodec ID                       : DIVX\nCodec ID/Info                  : Project Mayo\nCodec ID/Hint                  : DivX 4\nDuration                       : 3mn 57s\nBit rate                       : 486 Kbps\nWidth                          : 480 pixels\nHeight                         : 360 pixels\nDisplay aspect ratio           : 4:3\nFrame rate                     : 25.000 fps\nColor space                    : YUV\nChroma subsampling             : 4:2:0\nBit depth                      : 8 bits\nScan type                      : Progressive\nCompression mode               : Lossy\nBits/(Pixel*Frame)             : 0.113\nStream size                    : 13.8 MiB (81%)\nWriting library                : Lavc54.59.100\n\nAudio\nID                             : 1\nFormat                         : AAC\nFormat/Info                    : Advanced Audio Codec\nFormat profile                 : LC\nCodec ID                       : FF\nDuration                       : 17h 56mn\nSource duration                : 2mn 53s\nBit rate                       : 128 Kbps\nChannel(s)                     : 2 channels\nChannel positions              : Front: L R\nSampling rate                  : 44.1 KHz\nCompression mode               : Lossy\nStream size                    : 2.65 MiB (16%)\nAlignment                      : Split accross interleaves\nInterleave, duration           : 23 ms (0.58 video frame)\n\nRipper : Manojvb\n\nExtreme 24x7 Seeding\n\n\nEnjoy TMB Release!","torrent":{"xt":"urn:btih:265e81339ad482cd14a2efef9e06bec5d60de7d6","amp;dn":"%5BMARATHI%5D+Ganpatiche+Vahan+Undir+Jhale+-+Animation+-+Kids+%5BTMB%5D","amp;tr":["udp%3A%2F%2Ftracker.openbittorrent.com%3A80","udp%3A%2F%2Fopen.demonii.com%3A1337","udp%3A%2F%2Ftracker.coppersurfer.tk%3A6969","udp%3A%2F%2Fexodus.desync.com%3A6969"],"infoHash":"265e81339ad482cd14a2efef9e06bec5d60de7d6","infoHashBuffer":{"type":"Buffer","data":[38,94,129,51,154,212,130,205,20,162,239,239,158,6,190,197,214,13,231,214]},"announce":[],"urlList":[]}}